<svg id="outputsvg" xmlns="http://www.w3.org/2000/svg" style="transform: none; transform-origin: 50% 50%; cursor: move; display: inline;" width="480" height="439" viewBox="0 0 4800 4390" preserveAspectRatio="xMidYMid meet" title="Screenshot2019-10-07at181456.svg (8KB)"><g id="layer101" fill="#318185" stroke="none">  <path d="M0 2195 l0 -2195 2400 0 2400 0 0 2195 0 2195 -2400 0 -2400 0 0 -2195z"></path>  </g> <g id="layer102" fill="#74d14c" stroke="none">  <path d="M0 2195 l0 -2195 2400 0 2400 0 0 2195 0 2195 -2400 0 -2400 0 0 -2195z m1570 904 c126 -67 215 -156 319 -322 84 -135 168 -243 252 -326 l70 -69 -109 -109 c-72 -72 -132 -145 -177 -214 -118 -181 -127 -193 -184 -252 -58 -61 -135 -119 -210 -156 l-43 -22 -102 25 c-56 14 -135 28 -176 32 -152 13 -313 65 -422 138 -71 46 -172 154 -217 230 -59 98 -92 208 -100 325 -6 95 -4 110 19 180 62 180 170 317 325 409 103 61 198 90 390 117 94 14 193 31 220 39 58 16 71 14 145 -25z"></path>  <path d="M1100 2939 c-108 -21 -241 -115 -313 -221 -65 -96 -88 -204 -88 -410 1 -121 47 -231 141 -331 183 -196 494 -211 696 -33 130 114 185 263 185 501 0 230 -157 430 -382 490 -59 16 -169 18 -239 4z"></path>  </g> <g id="layer103" fill="#5b8eba" stroke="none">  <path d="M0 2195 l0 -2195 2400 0 2400 0 0 2195 0 2195 -2400 0 -2400 0 0 -2195z m1382 976 c217 -56 368 -170 495 -376 77 -125 178 -259 251 -332 219 -218 512 -342 912 -383 174 -19 310 -74 433 -176 261 -216 341 -590 193 -899 -193 -405 -705 -550 -1078 -306 -93 60 -163 132 -240 246 -144 211 -262 340 -412 451 -207 154 -501 271 -726 290 -152 13 -313 65 -422 138 -71 46 -172 154 -217 230 -108 181 -134 433 -66 629 86 245 276 420 530 487 96 26 248 26 347 1z"></path>  <path d="M1100 2939 c-103 -20 -230 -107 -304 -207 -138 -189 -116 -466 52 -639 103 -108 218 -157 363 -156 182 0 326 78 433 231 106 153 104 388 -5 551 -119 179 -324 262 -539 220z"></path>  <path d="M2877 1824 c-32 -7 -83 -26 -115 -41 -75 -35 -188 -149 -225 -226 -94 -195 -62 -416 84 -571 159 -169 390 -212 596 -111 169 83 283 265 283 450 0 139 -52 263 -152 363 -127 128 -300 178 -471 136z"></path>  </g> <g id="layer104" fill="#c182a7" stroke="none">  <path d="M0 2195 l0 -2195 2400 0 2400 0 0 2195 0 2195 -2400 0 -2400 0 0 -2195z m3160 1997 c98 -29 135 -47 227 -108 92 -61 181 -159 231 -252 88 -164 115 -366 73 -532 -65 -256 -230 -443 -474 -535 -37 -13 -137 -36 -223 -51 -87 -14 -203 -39 -258 -56 -130 -38 -318 -129 -429 -208 -99 -71 -99 -68 -7 -130 188 -128 438 -209 740 -240 288 -30 514 -185 627 -428 100 -215 98 -445 -6 -657 -197 -398 -703 -538 -1073 -296 -93 60 -163 132 -240 246 -144 211 -262 340 -412 451 -106 79 -267 166 -382 207 l-72 26 -63 -22 c-54 -18 -88 -21 -214 -22 -167 0 -226 13 -355 81 -218 114 -367 340 -395 599 -9 90 19 329 50 416 90 259 307 448 572 499 89 18 261 8 345 -19 l68 -22 77 26 c163 55 309 149 453 294 103 104 191 218 279 364 56 93 115 165 182 222 88 75 253 152 364 169 66 10 251 -3 315 -22z"></path>  <path d="M2843 3966 c-170 -42 -329 -196 -372 -361 -67 -261 74 -529 325 -615 379 -131 751 207 659 599 -64 269 -344 442 -612 377z"></path>  <path d="M1104 2825 c-95 -17 -185 -66 -260 -141 -72 -72 -125 -173 -132 -250 -10 -114 42 -245 136 -342 148 -153 353 -198 556 -122 157 59 305 245 306 385 0 147 -109 332 -243 409 -104 60 -242 84 -363 61z"></path>  <path d="M2877 1824 c-32 -7 -83 -26 -115 -41 -75 -35 -188 -149 -225 -226 -94 -195 -62 -416 84 -571 159 -169 390 -212 596 -111 169 83 283 265 283 450 0 139 -52 263 -152 363 -127 128 -300 178 -471 136z"></path>  </g> <g id="layer105" fill="#f2b25f" stroke="none">  <path d="M0 2195 l0 -2195 2400 0 2400 0 0 2195 0 2195 -2400 0 -2400 0 0 -2195z m3160 1997 c98 -29 135 -47 227 -108 92 -61 181 -159 231 -252 88 -164 115 -366 73 -532 -65 -256 -230 -443 -474 -535 -37 -13 -137 -36 -223 -51 -87 -14 -203 -39 -258 -56 -130 -38 -318 -129 -429 -208 -99 -71 -99 -68 -7 -130 188 -128 438 -209 740 -240 288 -30 514 -185 627 -428 100 -215 98 -445 -6 -657 -197 -398 -703 -538 -1073 -296 -93 60 -163 132 -240 246 -144 211 -262 340 -412 451 -106 79 -267 166 -382 207 l-72 26 -63 -22 c-54 -18 -88 -21 -214 -22 -167 0 -226 13 -355 81 -218 114 -367 340 -395 599 -9 90 19 329 50 416 90 259 307 448 572 499 89 18 261 8 345 -19 l68 -22 77 26 c163 55 309 149 453 294 103 104 191 218 279 364 56 93 115 165 182 222 88 75 253 152 364 169 66 10 251 -3 315 -22z"></path>  <path d="M2843 3966 c-170 -42 -329 -196 -372 -361 -67 -261 74 -529 325 -615 379 -131 751 207 659 599 -64 269 -344 442 -612 377z"></path>  <path d="M1104 2825 c-95 -17 -185 -66 -260 -141 -72 -72 -125 -173 -132 -250 -10 -114 42 -245 136 -342 148 -153 353 -198 556 -122 157 59 305 245 306 385 0 147 -109 332 -243 409 -104 60 -242 84 -363 61z m211 -284 c63 -33 110 -95 126 -165 15 -69 3 -102 -57 -155 -124 -109 -313 -70 -390 81 -36 71 -33 137 8 183 38 44 96 75 157 85 61 9 96 3 156 -29z"></path>  <path d="M2877 1824 c-32 -7 -83 -26 -115 -41 -75 -35 -188 -149 -225 -226 -94 -195 -62 -416 84 -571 159 -169 390 -212 596 -111 169 83 283 265 283 450 0 139 -52 263 -152 363 -127 128 -300 178 -471 136z"></path>  </g> <g id="layer106" fill="#c59ad7" stroke="none">  <path d="M0 2195 l0 -2195 2400 0 2400 0 0 2195 0 2195 -2400 0 -2400 0 0 -2195z m3160 1997 c98 -29 135 -47 227 -108 92 -61 181 -159 231 -252 88 -164 115 -366 73 -532 -65 -256 -230 -443 -474 -535 -37 -13 -137 -36 -223 -51 -87 -14 -203 -39 -258 -56 -130 -38 -318 -129 -429 -208 -99 -71 -99 -68 -7 -130 188 -128 438 -209 740 -240 288 -30 514 -185 627 -428 100 -215 98 -445 -6 -657 -197 -398 -703 -538 -1073 -296 -93 60 -163 132 -240 246 -144 211 -262 340 -412 451 -106 79 -267 166 -382 207 l-72 26 -63 -22 c-54 -18 -88 -21 -214 -22 -167 0 -226 13 -355 81 -218 114 -367 340 -395 599 -9 90 19 329 50 416 90 259 307 448 572 499 89 18 261 8 345 -19 l68 -22 77 26 c163 55 309 149 453 294 103 104 191 218 279 364 56 93 115 165 182 222 88 75 253 152 364 169 66 10 251 -3 315 -22z"></path>  <path d="M2843 3966 c-170 -42 -329 -196 -372 -361 -67 -261 74 -529 325 -615 379 -131 751 207 659 599 -64 269 -344 442 -612 377z"></path>  <path d="M1104 2825 c-95 -17 -185 -66 -260 -141 -72 -72 -125 -173 -132 -250 -10 -114 42 -245 136 -342 148 -153 353 -198 556 -122 157 59 305 245 306 385 0 147 -109 332 -243 409 -104 60 -242 84 -363 61z m188 -169 c146 -44 220 -211 154 -352 -113 -242 -477 -160 -476 108 1 114 70 211 172 241 67 20 94 20 150 3z"></path>  <path d="M2877 1824 c-32 -7 -83 -26 -115 -41 -75 -35 -188 -149 -225 -226 -94 -195 -62 -416 84 -571 159 -169 390 -212 596 -111 169 83 283 265 283 450 0 139 -52 263 -152 363 -127 128 -300 178 -471 136z m229 -287 c44 -22 90 -71 117 -121 33 -62 30 -167 -6 -228 -54 -92 -125 -133 -232 -132 -145 1 -256 126 -242 274 8 94 58 167 142 207 42 20 61 23 120 20 39 -2 84 -11 101 -20z"></path>  </g> <g id="layer107" fill="#fdfdfd" stroke="none">  <path d="M0 2195 l0 -2195 2400 0 2400 0 0 2195 0 2195 -2400 0 -2400 0 0 -2195z m3160 1997 c98 -29 135 -47 227 -108 92 -61 181 -159 231 -252 88 -164 115 -366 73 -532 -65 -256 -230 -443 -474 -535 -37 -13 -137 -36 -223 -51 -87 -14 -203 -39 -258 -56 -130 -38 -318 -129 -429 -208 -99 -71 -99 -68 -7 -130 188 -128 438 -209 740 -240 288 -30 514 -185 627 -428 100 -215 98 -445 -6 -657 -197 -398 -703 -538 -1073 -296 -93 60 -163 132 -240 246 -144 211 -262 340 -412 451 -106 79 -267 166 -382 207 l-72 26 -63 -22 c-54 -18 -88 -21 -214 -22 -167 0 -226 13 -355 81 -218 114 -367 340 -395 599 -9 90 19 329 50 416 90 259 307 448 572 499 89 18 261 8 345 -19 l68 -22 77 26 c163 55 309 149 453 294 103 104 191 218 279 364 56 93 115 165 182 222 88 75 253 152 364 169 66 10 251 -3 315 -22z"></path>  <path d="M2843 3966 c-170 -42 -329 -196 -372 -361 -67 -261 74 -529 325 -615 379 -131 751 207 659 599 -64 269 -344 442 -612 377z m183 -271 c184 -54 240 -294 99 -424 -109 -101 -283 -86 -372 32 -111 148 -31 361 150 397 61 12 69 11 123 -5z"></path>  <path d="M1104 2825 c-95 -17 -185 -66 -260 -141 -72 -72 -125 -173 -132 -250 -10 -114 42 -245 136 -342 148 -153 353 -198 556 -122 157 59 305 245 306 385 0 147 -109 332 -243 409 -104 60 -242 84 -363 61z m188 -169 c102 -30 178 -130 178 -234 0 -71 -42 -208 -80 -259 -115 -157 -379 -107 -435 81 -24 81 -21 105 32 264 21 61 90 126 155 145 67 20 94 20 150 3z"></path>  <path d="M2877 1824 c-32 -7 -83 -26 -115 -41 -75 -35 -188 -149 -225 -226 -94 -195 -62 -416 84 -571 159 -169 390 -212 596 -111 169 83 283 265 283 450 0 139 -52 263 -152 363 -127 128 -300 178 -471 136z m229 -287 c44 -22 90 -71 117 -121 33 -62 30 -167 -6 -228 -54 -92 -125 -133 -232 -132 -145 1 -256 126 -242 274 8 94 58 167 142 207 42 20 61 23 120 20 39 -2 84 -11 101 -20z"></path>  </g> </svg>